<?xml version="1.0" encoding="UTF-8"?> <svg xmlns="http://www.w3.org/2000/svg" xmlns:xlink="http://www.w3.org/1999/xlink" width="102px" height="60px" viewBox="0 0 102 60" version="1.1"><title>12_Tata_Cliq</title><g id="Page-1" stroke="none" stroke-width="1" fill="none" fill-rule="evenodd"><g id="12_Tata_Cliq" fill="#FFFFFF" fill-rule="nonzero"><path d="M83.5743703,24.8049059 C85.0507541,24.7980386 86.5215756,24.9848106 87.9486176,25.3603692 L88.0011086,25.3603692 L88.5085213,25.499235 L88.5610123,25.499235 C92.0965892,26.6202605 95.1677423,28.8535626 97.309507,31.8610251 C97.5515466,32.190758 97.7763865,32.5325852 97.9831411,32.8851604 C98.85296,34.302999 99.5046105,35.8416857 99.9165585,37.4503741 C100.089897,38.124042 100.218484,38.8082692 100.301492,39.4986448 C100.540697,41.5755942 100.416389,43.6779297 99.9340554,45.71289 C99.525159,47.3321331 98.8765524,48.8822933 98.0093866,50.31282 L97.344501,51.4150674 L101.167593,55.2078399 C102.274043,56.3007219 102.27796,58.0765194 101.176342,59.1741947 C100.074723,60.27187 98.2847298,60.2757558 97.1782796,59.1828739 L93.3639359,55.3901013 L92.2528771,56.0583931 C91.9991707,56.2146171 91.7717098,56.3448038 91.561746,56.4576323 L91.4655125,56.4576323 C91.0368363,56.6746101 90.5906631,56.8829088 90.1532383,57.0651702 C88.849429,57.6017294 87.4871953,57.9861881 86.0939368,58.2108132 C85.2459773,58.3429117 84.3889778,58.4096512 83.5306278,58.4104328 C79.8798471,58.4493375 76.3141242,57.3168682 73.3648769,55.1818026 C71.5789883,53.8988131 70.0682501,52.2761431 68.9206416,50.4082903 C68.6018386,49.932845 68.3097763,49.4402769 68.0457921,48.932841 C67.3689964,47.5242924 66.8948674,46.0284609 66.6372845,44.489135 L66.6372845,44.3242318 L66.6372845,44.1419704 L66.6372845,43.8642388 C66.5338417,43.1280441 66.4812281,42.3856973 66.4798115,41.6423858 C66.482382,40.5792795 66.5848917,39.518728 66.7860089,38.4745094 C66.8647453,38.1013076 66.9259848,37.7975386 67.0047212,37.5111278 C67.5460015,35.4062426 68.493768,33.4255277 69.7954911,31.6787637 C71.1189827,29.9190612 72.7738203,28.4306134 74.6684026,27.2958114 C75.4104103,26.8299115 76.1919922,26.4291515 77.0042507,26.0980938 C79.0721044,25.2322158 81.2948827,24.7894146 83.5393763,24.7961494 L83.5743703,24.8049059 Z M15.1173989,24.8049059 C20.9613934,24.8049059 24.7407431,27.1222292 26.7616454,30.0123739 C27.1016835,30.4771519 27.2881265,31.0350773 27.2953036,31.6093308 C27.2714272,33.030358 26.1033412,34.1698666 24.6707552,34.1696692 C23.9011831,34.1517338 23.1783472,33.7995282 22.6935954,33.2062876 C20.8508868,30.9466464 18.0354271,29.6902205 15.1086504,29.8214334 C8.68725528,29.8214334 5.79150352,33.7877882 5.79150352,41.7725725 C5.79150352,50.2433871 8.68725528,53.680316 15.1086504,53.680316 C18.6867848,53.680316 20.6202021,52.8124047 22.9822957,50.4864023 C23.4902592,49.8558101 24.2435272,49.4679739 25.0556889,49.4188713 C26.505187,49.4188713 27.6802809,50.5846028 27.6802809,52.0226054 C27.6833957,52.5475284 27.514527,53.0592546 27.1990702,53.4806964 C24.880719,56.5704607 20.3402503,58.6881644 15.1698899,58.6881644 C5.54654567,58.6881644 0.0524909685,53.602204 0.0524909685,41.7465352 C-1.37723166e-13,30.3074638 5.50280319,24.8049059 15.1173989,24.8049059 Z M35.0377214,24.8049059 C35.7801999,24.8049059 36.4922683,25.0975152 37.0172798,25.618363 C37.5422914,26.1392109 37.8372398,26.8456321 37.8372398,27.5822222 L37.8372398,52.2482623 L49.2715224,52.2482623 C50.7210205,52.2482623 51.8960708,53.4139937 51.8960708,54.8519963 C51.8960708,56.2899989 50.7210205,57.4557303 49.2715224,57.4557303 L34.9852305,57.4557303 C34.2543013,57.4899589 33.5421549,57.2199075 33.0205986,56.7107266 C32.4990424,56.2015458 32.215437,55.4994726 32.2382031,54.7738843 L32.2382031,27.5735431 C32.2430241,26.0430642 33.4950002,24.8049059 35.0377214,24.8049059 Z M58.8773696,33.926654 C60.4654185,33.8828149 61.7907686,35.1200824 61.8431093,36.6952912 L61.8431093,54.6523767 C61.7575786,56.2129466 60.4571126,57.4348556 58.8817439,57.4348556 C57.3063751,57.4348556 56.0059091,56.2129466 55.9203784,54.6523767 L55.9203784,36.6952912 C55.968006,35.1214473 57.2908432,33.8828721 58.8773696,33.926654 Z M83.6356097,29.4048118 C83.0144731,29.4065087 82.3943971,29.4558374 81.7809289,29.5523809 C80.7452435,29.7161932 79.7342504,30.0077557 78.7714467,30.4202923 C78.1940248,30.6691046 77.6355699,30.9591706 77.1004842,31.2882036 L77.1004842,31.2882036 C75.7441357,32.131489 74.5575318,33.2174498 73.6010863,34.4907964 C72.6197429,35.7355228 71.9025441,37.1644493 71.492699,38.6914873 C71.0580076,40.2332114 70.96843,41.850593 71.2302442,43.4302831 C71.4591824,45.0349825 72.02871,46.573232 72.9012067,47.9434221 C73.7257826,49.3026472 74.8176998,50.4833094 76.1119043,51.4150674 C78.7594775,53.3792538 82.0905909,54.2077725 85.3590632,53.7150325 C90.2411153,52.9538702 94.1899341,49.3679543 95.3848382,44.6106426 C95.7742912,43.0438811 95.8574438,41.4175874 95.629796,39.819772 C95.1449488,36.6383969 93.4319982,33.7687719 90.8531179,31.8176295 C88.7803009,30.2476481 86.2434728,29.3995933 83.6356097,29.4048118 L83.6356097,29.4048118 Z M58.8161302,23.0083295 L62.315528,26.4799748 C63.0914862,27.1848333 63.4148383,28.2553532 63.1574732,29.2673976 C62.9001081,30.279442 62.1035638,31.0696691 61.0834291,31.3249931 C60.0632944,31.5803172 58.9842167,31.2595294 58.2737235,30.4897252 L54.7743256,27.0180798 C53.6582121,25.9132145 53.6562537,24.119931 54.7699513,23.012669 C55.883649,21.905407 57.6912681,21.9034641 58.8073817,23.0083295 L58.8161302,23.0083295 Z M15.0736564,0 L15.0736564,4.5565345 L10.6556666,4.5565345 L10.6556666,15.6571205 L4.45298382,15.6571205 L4.45298382,4.5565345 L0,4.5565345 L0,0 L15.0736564,0 Z M26.9016213,0 L33.1742921,15.622404 L26.9278668,15.622404 L23.5072054,6.1795287 L20.0865439,15.6571205 L13.8051247,15.6571205 L20.1040409,0.0347164534 L26.9016213,0 Z M46.9794168,0 L46.9794168,4.5565345 L42.5614269,4.5565345 L42.5614269,15.6571205 L36.3587441,15.6571205 L36.3587441,4.5565345 L31.9232573,4.5565345 L31.9232573,0 L46.9794168,0 Z M58.8161302,0 L65.0975494,15.622404 L58.8511241,15.622404 L55.4304627,6.1795287 L51.9923043,15.6571205 L45.7021365,15.6571205 L52.0010527,0.0347164534 L58.8161302,0 Z" id="Combined-Shape"></path></g></g></svg> 